<svg xmlns="http://www.w3.org/2000/svg" viewBox="215 158 840 916">
  <!-- Friction Point monogram: F, P, mirrored/inverted Cs forming a reverse S; inflection at center -->
  <path d="M235.0 1054.1C235.0 1052.9 239.9 1049.1 245.3 1046.1C250.3 1043.3 255.9 1041.9 265.5 1041.1C269.9 1040.7 274.1 1040.0 274.9 1039.6C275.6 1039.1 290.7 1038.3 308.4 1037.8C351.1 1036.6 376.0 1034.7 380.7 1032.2C381.9 1031.5 384.9 1031.0 387.4 1031.0C389.9 1031.0 392.2 1030.5 392.5 1030.0C392.8 1029.5 394.8 1029.0 396.8 1029.0C399.5 1028.9 401.5 1028.0 404.2 1025.7L407.9 1022.4L401.7 1019.1C378.6 1006.6 355.8 987.2 339.9 966.5C327.7 950.6 313.5 925.2 310.1 913.0C309.4 910.5 308.2 907.3 307.4 905.8C306.6 904.4 306.0 902.5 306.0 901.6C306.0 900.7 305.6 899.2 305.1 898.2C301.1 890.3 297.6 864.4 297.6 843.0C297.6 822.9 300.5 796.1 302.9 793.7C303.5 793.1 304.0 790.9 304.0 788.9C304.0 786.8 304.4 784.9 304.9 784.6C305.4 784.3 306.0 782.6 306.3 780.8C306.8 777.5 308.5 772.0 310.1 768.8C310.6 767.8 311.0 766.6 311.0 766.0C311.0 765.4 312.1 762.7 313.5 759.8C314.9 757.0 316.0 754.0 316.0 753.3C316.0 752.6 316.4 752.0 317.0 752.0C317.6 752.0 318.0 751.2 318.0 750.1C318.0 749.1 318.7 747.7 319.5 747.0C320.3 746.3 321.0 745.1 321.0 744.3C321.0 743.5 323.1 739.6 325.7 735.7C328.3 731.7 331.0 727.4 331.8 726.0C332.5 724.6 334.2 722.4 335.6 720.9C336.9 719.5 338.0 717.9 338.0 717.4C338.0 716.8 339.2 715.3 340.6 713.9C342.1 712.6 344.3 709.9 345.5 707.9C348.5 703.3 365.0 686.8 371.4 682.0C374.2 680.0 377.1 677.6 377.9 676.6C378.6 675.7 381.0 674.0 383.1 672.8C385.3 671.6 387.0 670.3 387.0 669.8C387.0 669.4 387.5 669.0 388.1 669.0C388.7 669.0 390.6 667.9 392.4 666.5C394.2 665.1 396.0 664.0 396.4 664.0C396.8 664.0 398.6 663.0 400.3 661.7C406.0 657.7 409.3 656.0 417.8 652.4C424.0 649.8 426.3 648.6 430.3 646.1C432.4 644.8 437.6 642.4 441.8 640.9L449.5 638.1L376.0 638.1C297.6 638.0 292.8 638.2 278.5 643.0C270.8 645.6 261.2 651.7 257.8 656.3C256.4 658.0 254.2 661.5 252.9 664.0L250.5 668.5L250.0 627.5C249.7 605.0 249.7 586.1 250.1 585.7C250.4 585.2 252.2 587.4 253.9 590.5C257.7 597.1 266.2 605.9 271.0 608.1C283.1 613.6 284.8 614.2 291.5 615.2C308.3 617.6 329.1 618.1 421.5 618.5C519.4 618.9 578.4 618.0 580.4 616.0C581.0 615.4 582.6 615.0 584.1 615.0C585.6 615.0 587.3 614.3 588.0 613.5C588.7 612.7 590.1 612.0 591.1 612.0C592.2 612.0 593.0 611.5 593.0 611.0C593.0 610.5 593.6 610.0 594.3 610.0C597.1 610.0 607.0 598.0 607.0 594.5C607.0 593.6 607.5 591.9 608.2 590.7C608.9 589.5 609.8 585.8 610.4 582.5C611.6 575.2 611.8 242.2 610.6 234.2C610.1 231.3 609.3 228.7 608.9 228.4C608.4 228.1 608.0 227.2 608.0 226.3C608.0 220.9 600.0 210.3 592.7 206.1C581.6 199.8 584.8 200.0 479.8 200.0C390.7 200.0 383.6 200.1 373.9 201.9C327.6 210.2 281.6 243.3 264.4 280.6C260.0 290.1 258.0 298.6 258.0 308.5C258.0 315.6 257.8 316.2 256.6 314.5C255.8 313.4 254.0 309.0 252.6 304.8C250.0 297.4 249.9 296.3 250.3 281.3C250.7 265.9 251.5 260.2 254.0 253.0C256.7 245.5 256.9 245.1 261.3 236.7C262.0 235.5 263.5 233.1 264.8 231.3C266.0 229.6 267.0 227.9 267.0 227.4C267.0 226.0 287.2 206.2 290.6 204.4C292.5 203.4 294.0 202.2 294.0 201.8C294.0 201.3 294.5 201.0 295.2 201.0C295.8 201.0 297.8 199.9 299.6 198.5C301.4 197.1 303.4 196.0 303.9 196.0C304.5 196.0 305.8 195.6 306.8 195.0C307.7 194.5 310.3 193.4 312.5 192.5C314.7 191.6 317.3 190.4 318.2 189.9C319.2 189.4 320.8 189.0 321.8 189.0C322.8 189.0 324.5 188.3 325.6 187.5C326.6 186.7 329.2 186.0 331.2 186.0C333.2 186.0 335.2 185.6 335.5 185.0C335.8 184.5 338.3 184.0 340.9 184.0C343.6 184.0 347.4 183.3 349.4 182.5C352.7 181.1 390.1 180.9 688.3 180.6C909.0 180.4 1025.6 180.0 1029.5 179.3C1032.8 178.7 1035.7 178.5 1036.0 178.7C1037.1 179.8 1029.7 184.7 1023.3 187.1C1012.0 191.5 1000.2 193.0 976.6 193.0C937.5 193.0 892.1 195.6 871.8 199.0C860.0 201.1 845.0 204.9 845.0 205.9C845.0 206.6 854.8 212.3 856.9 212.8C860.0 213.6 873.9 221.6 881.5 226.9C904.2 242.8 922.7 262.7 937.8 287.6C963.9 330.8 973.2 380.7 964.5 430.8C956.9 474.0 932.8 518.3 899.7 549.7C871.7 576.1 833.5 598.1 795.5 609.7L789.5 611.5L799.0 612.3C810.2 613.2 931.8 613.3 953.3 612.3C961.4 612.0 968.3 611.3 968.6 610.9C968.9 610.4 970.3 610.0 971.7 610.0C973.0 610.0 975.6 609.3 977.3 608.4C983.1 605.3 984.0 605.0 985.5 605.0C986.3 605.0 987.0 604.7 987.0 604.2C987.0 603.8 988.5 602.7 990.2 601.7C992.0 600.7 994.3 598.9 995.3 597.7C998.2 594.1 1002.0 588.0 1002.0 587.0C1002.0 586.4 1002.7 586.0 1003.5 586.0C1004.8 586.0 1005.0 591.2 1005.0 626.6C1005.0 650.2 1004.6 666.9 1004.1 666.6C1003.6 666.3 1002.2 664.1 1001.0 661.8C994.5 649.2 979.8 640.7 958.2 637.2C948.4 635.7 935.7 635.5 814.0 635.5L680.5 635.5L673.5 637.8C657.3 643.2 649.7 651.2 645.2 667.3C643.6 673.1 643.5 684.9 643.5 833.5C643.5 1007.2 643.3 1001.0 649.0 1013.5C650.5 1016.8 653.3 1021.3 655.2 1023.5C658.9 1027.6 668.9 1033.3 675.0 1034.6C680.0 1035.7 871.9 1035.4 881.0 1034.4C885.1 1033.9 889.5 1032.9 890.7 1032.2C891.9 1031.6 894.0 1031.0 895.4 1031.0C896.8 1031.0 898.2 1030.5 898.5 1030.0C898.8 1029.5 900.4 1029.0 901.9 1029.0C903.5 1029.0 905.3 1028.3 906.0 1027.5C906.7 1026.7 908.1 1026.0 909.1 1026.0C910.8 1026.0 933.0 1015.0 936.0 1012.6C936.8 1011.9 938.7 1010.8 940.2 1010.0C941.8 1009.3 943.0 1008.3 943.0 1007.8C943.0 1007.4 943.6 1007.0 944.4 1007.0C948.1 1007.0 980.0 976.1 980.0 972.5C980.0 972.1 981.5 969.7 983.3 967.1C985.1 964.6 987.4 960.7 988.4 958.5C989.5 956.3 990.7 953.7 991.1 952.8C991.6 951.8 992.0 950.2 992.0 949.2C992.0 948.2 992.5 946.9 993.1 946.3C993.7 945.7 994.5 939.9 994.9 933.4C995.2 926.4 995.9 921.5 996.6 921.3C997.9 920.9 1000.5 926.5 1002.7 935.0C1005.0 943.6 1004.9 962.6 1002.5 973.5C993.5 1015.3 960.5 1043.0 910.6 1050.6C903.0 1051.7 848.5 1052.0 575.9 1052.0C265.7 1052.0 245.2 1052.2 236.8 1054.6C235.8 1054.9 235.0 1054.7 235.0 1054.1ZM578.3 1039.4C588.7 1036.2 594.3 1033.4 598.4 1029.0C602.1 1025.1 607.0 1016.8 607.0 1014.4C607.0 1013.5 607.6 1011.4 608.4 1009.7C609.2 1007.9 610.2 1003.8 610.6 1000.5C611.6 991.4 611.6 677.4 610.6 670.5C609.5 663.5 604.4 652.8 599.7 648.0C598.0 646.2 593.6 643.4 590.1 641.8C580.5 637.4 571.2 636.0 551.7 636.0C507.3 636.1 466.7 648.2 430.0 672.3C405.3 688.6 384.9 709.2 370.2 732.5C363.9 742.5 353.5 762.5 352.1 767.4C351.6 769.1 349.8 774.3 348.2 779.0C345.4 786.9 343.7 792.9 341.1 805.5C340.5 808.2 339.6 815.2 339.0 820.9C332.4 888.9 365.9 955.9 427.0 996.7C438.5 1004.4 440.4 1005.4 457.0 1013.5C465.5 1017.7 473.8 1021.8 475.3 1022.6C476.9 1023.4 479.0 1024.0 480.0 1024.0C481.0 1024.0 482.2 1024.5 482.5 1025.0C482.8 1025.5 483.9 1026.0 484.8 1026.0C485.7 1026.0 487.8 1026.7 489.4 1027.5C490.9 1028.3 493.1 1029.0 494.1 1029.0C495.1 1029.0 496.2 1029.5 496.5 1030.0C496.8 1030.5 498.3 1031.0 499.8 1031.0C501.3 1031.1 503.6 1031.7 505.0 1032.5C506.4 1033.3 508.9 1033.9 510.5 1034.0C512.2 1034.0 514.0 1034.4 514.5 1034.9C515.1 1035.4 517.8 1036.0 520.5 1036.3C528.7 1037.2 544.1 1039.8 544.7 1040.4C545.1 1040.7 551.6 1041.0 559.2 1041.0C569.1 1041.0 574.6 1040.5 578.3 1039.4ZM734.5 615.3C738.9 614.8 743.1 614.0 743.8 613.6C744.9 612.9 747.2 612.4 760.0 610.1C764.5 609.2 770.0 607.5 773.2 605.9C774.2 605.4 775.9 605.0 777.0 605.0C778.1 605.0 779.8 604.6 780.8 604.1C785.0 602.0 790.2 600.0 791.5 600.0C792.3 600.0 793.0 599.5 793.0 599.0C793.0 598.5 793.8 598.0 794.9 598.0C795.9 598.0 797.3 597.3 798.0 596.5C798.7 595.7 800.1 595.0 801.1 595.0C802.1 595.0 803.2 594.5 803.5 594.0C803.8 593.5 805.0 593.0 806.1 593.0C807.2 593.0 808.3 592.3 808.6 591.5C809.0 590.7 810.0 590.0 810.9 589.9C811.8 589.9 813.9 589.0 815.5 587.9C817.1 586.9 819.2 585.7 820.0 585.3C822.8 584.1 841.5 570.6 844.0 568.0C845.4 566.6 848.8 563.7 851.5 561.5C857.6 556.6 867.2 547.0 872.3 540.7C874.4 538.2 876.7 535.5 877.3 534.8C878.8 533.3 887.0 522.5 888.5 520.1C893.5 512.2 895.9 508.0 896.4 506.2C896.8 505.0 897.6 504.0 898.1 504.0C898.6 504.0 899.0 503.3 899.0 502.5C899.0 501.6 900.0 499.3 901.3 497.2C905.7 490.2 908.0 484.8 914.5 466.5C915.5 463.8 916.6 460.6 917.1 459.5C918.9 454.6 921.7 442.4 923.1 432.6C923.6 428.8 924.5 424.9 925.0 423.9C926.3 421.6 926.3 380.1 925.0 376.4C924.5 374.8 923.6 370.8 923.0 367.5C921.3 356.8 919.1 347.4 917.1 342.5C916.6 341.4 915.7 338.7 915.0 336.5C913.8 332.7 910.8 325.6 907.2 318.0C899.2 301.1 884.5 280.5 870.0 265.9C843.6 239.3 814.1 221.1 776.3 208.1C761.8 203.1 756.3 201.6 740.0 198.4C711.4 192.7 692.8 191.6 679.7 194.9C669.6 197.5 664.5 200.3 658.5 206.5C652.6 212.5 648.7 220.1 645.6 231.5L643.5 239.5L643.5 408.0C643.5 564.8 643.6 577.0 645.2 583.3C648.8 597.2 655.5 606.0 665.8 610.6C668.9 611.9 672.3 613.5 673.2 614.0C674.2 614.6 676.9 615.0 679.2 615.1C681.6 615.1 684.4 615.5 685.5 616.0C687.9 617.1 723.1 616.5 734.5 615.3Z" fill="#E9EDF2" fill-rule="evenodd"/>
</svg>